<?xml version="1.0" encoding="UTF-8"?>
<svg version="1.1" viewBox="0 0 2048 761" width="1850" height="600" xmlns="http://www.w3.org/2000/svg">
<path transform="translate(1497,145)" d="m0 0 84 1v455l-2 1h-91l-1-1-1-114v-182l-3-1-1 5-24 60-20 51-18 44-44 110-10 24-2 2h-62l-3-5-13-31-15-38-43-108-14-35-23-57-7-18-4-4-2-1 1 12v286l-2 1h-91l-1-3v-453h120l14 34 17 42 34 82 15 37 17 41 16 39 12 29 1 4 4-2 7-15 13-32 14-34 15-37 19-46 13-32 17-41 17-42 11-25 1-2z"/>
<path transform="translate(40,146)" d="m0 0h119l5 10 15 37 14 34 20 49 12 29 18 44 14 34 27 66 3 4 3-1 9-21 17-41 22-54 15-37 12-29 20-49 29-70 3-5h119v455l-1 1h-93v-298l-5 5-22 54-12 30-18 46-12 29-11 28-19 47-15 37-7 18-1 1-8 1-53 1-5-5-9-21-14-36-43-107-12-31-14-34-14-36-10-25-2-3h-2l-1 298-1 1h-92l-1-41z"/>
<path transform="translate(655,145)" d="m0 0h23l29 1 13 18 19 28 11 16 16 23 13 19 11 16 16 23 16 24 13 18 10 15 11 16 13 19 16 23 8 12 11 15 3 2 1-284 1-3h95l1 1v454l-3 1h-81l-11-15-13-19-16-23-11-16-14-20-15-22-64-92-16-24-11-15-13-19-11-16-6-7-2-1v288l-2 1h-94l-1-34v-395l1-27z" fill="#010101"/>
<path transform="translate(1649,146)" d="m0 0h375v78l-30 1h-109l-1 376-1 1h-94l-1-20v-227l1-130h-139l-1-1z"/>
</svg>
